<svg width="471" height="324" viewBox="0 0 471 324" fill="none" xmlns="http://www.w3.org/2000/svg">
<rect width="446" height="290" rx="8" fill="#FFCDEE"/>
<g clip-path="url(#clip0_20424_129433)">
<path d="M423.138 212.016C423.138 212.016 392.909 254.394 375.933 268.047C362.79 278.642 353.7 278.751 344.28 268.266C331.576 253.958 300.252 205.136 300.252 205.136C296.671 199.384 295.525 192.45 297.065 185.857C298.605 179.263 302.705 173.548 308.466 169.966C320.404 162.539 336.833 166.143 344.28 178.158L361.585 206.883L363.338 209.832L363.776 210.378L395.319 182.199L423.138 212.016Z" fill="#4C7DFF"/>
<path d="M363.337 209.832C360.166 213.603 357.412 217.704 355.123 222.065C355.001 222.344 354.803 222.585 354.551 222.758C354.3 222.932 354.005 223.032 353.699 223.048L352.932 222.829C352.559 222.621 352.276 222.284 352.135 221.882C351.993 221.479 352.004 221.039 352.166 220.645C354.77 215.715 357.93 211.098 361.585 206.883L363.337 209.832Z" fill="#2859D1"/>
<path d="M461.361 189.733L428.614 124.091L426.423 119.613L411.747 125.511L416.457 135.669L445.261 197.379L461.361 189.733Z" fill="#FF8C19"/>
<path d="M426.095 152.814L426.861 148.555C427.217 146.424 426.779 144.236 425.629 142.405C424.479 140.574 422.697 139.226 420.618 138.616C416.018 137.196 412.623 139.38 410.214 143.203C407.804 147.026 402.657 155.982 402.547 161.443C402.65 163.925 403.207 166.368 404.19 168.651L389.514 182.413C389.021 182.972 388.749 183.69 388.749 184.434C388.749 185.178 389.021 185.896 389.514 186.455C396.304 193.772 420.728 218.566 424.89 219.986C429.052 221.405 430.585 219.767 432.447 217.364L446.247 193.991L426.095 152.814Z" fill="#8F473B"/>
<path d="M450.409 136.324C450.409 136.324 435.842 134.139 433.214 133.266L452.161 186.129C452.161 186.129 464.757 179.466 468.919 171.056C473.081 162.646 470.452 158.168 467.166 154.345C463.881 150.523 462.895 149.212 462.457 145.28C461.471 135.232 450.409 136.324 450.409 136.324Z" fill="#8F473B"/>
<path d="M428.614 124.091L416.457 135.669L411.747 125.511L426.423 119.613L428.614 124.091Z" fill="black"/>
<path d="M467.385 195.305L445.371 205.79L438.361 196.943L464.757 184.273L467.385 195.305Z" fill="#ED5F00"/>
<path d="M432.777 120.378L408.572 132.064L398.824 120.378L429.6 105.633L432.777 120.378Z" fill="#2859D1"/>
<path d="M470.89 83.3511L467.714 92.5257L427.3 111.967L424.343 113.387L365.09 141.785L355.781 138.617L333.109 91.4335L336.286 82.2589L439.019 33L448.219 36.2766L470.89 83.3511Z" fill="url(#paint0_linear_20424_129433)"/>
<path d="M398.604 60.0878L421.276 107.162L424.343 113.388L427.3 111.968L424.233 105.742L401.562 58.668L398.604 60.0878Z" fill="#4C7DFF"/>
<path opacity="0.5" d="M384.696 128.023L367.938 134.576L372.1 70.5722L388.858 63.582L384.696 128.023Z" fill="white"/>
<path d="M470.891 83.3516L467.714 92.5262L427.3 111.968L424.343 113.387L365.091 141.785L355.781 138.618L368.048 132.72L384.915 124.637L421.276 107.162L424.234 105.742L470.891 83.3516Z" fill="#4C7DFF"/>
<path d="M448.219 36.2766L401.562 58.667L398.605 60.0869L388.857 64.6742L371.99 72.7566L333.109 91.4335L336.286 82.2589L439.019 33L448.219 36.2766Z" fill="#8CD9FF"/>
<path d="M456.762 151.177L452.928 154.672L447.452 140.801C447.452 140.801 438.033 148.446 434.309 153.034C430.585 157.621 433.104 164.393 438.471 166.249C439.741 166.663 441.084 166.812 442.414 166.686C442.581 166.655 442.752 166.659 442.917 166.699C443.082 166.738 443.236 166.812 443.371 166.915C443.505 167.018 443.616 167.148 443.697 167.297C443.777 167.446 443.825 167.61 443.838 167.778C443.922 169.462 444.524 171.078 445.563 172.407C446.602 173.736 448.026 174.713 449.643 175.206C456.762 177.281 464.538 168.325 464.538 168.325L456.762 151.177Z" fill="#8F473B"/>
<path d="M451.176 138.179C452.162 136.65 456.105 128.458 450.848 122.233C445.59 116.007 440.99 119.175 437.924 120.813C434.857 122.451 430.476 131.189 428.176 136.978C425.876 142.766 430.257 150.412 436.39 150.63C444.933 150.958 450.19 139.708 451.176 138.179Z" fill="#8F473B"/>
<path d="M455.886 136.976L445.919 148.881C444.739 150.249 443.277 151.347 441.633 152.101C439.988 152.855 438.2 153.247 436.391 153.25H433.433C433.167 153.247 432.905 153.176 432.674 153.042C432.444 152.907 432.253 152.716 432.119 152.485L434.091 150.41L433.433 150.082H435.952C437.357 150.182 438.765 149.946 440.06 149.395C441.355 148.845 442.5 147.994 443.4 146.915L452.162 136.43C453.418 136.489 454.666 136.672 455.886 136.976Z" fill="#6B2F34"/>
<path d="M465.742 167.995C463.793 172.556 460.197 176.221 455.666 178.262L454.133 175.313C457.975 173.677 461.035 170.625 462.676 166.794C462.747 166.594 462.86 166.412 463.006 166.259C463.152 166.105 463.328 165.983 463.524 165.901C463.719 165.819 463.93 165.778 464.142 165.781C464.354 165.785 464.564 165.832 464.757 165.92C465.161 166.068 465.491 166.368 465.675 166.756C465.859 167.145 465.884 167.589 465.742 167.995Z" fill="#6B2F34"/>
<path d="M438.581 153.36C441.647 157.073 441.866 162.534 438.033 165.483C434.2 168.432 429.709 166.466 424.562 163.845C419.414 161.224 415.8 159.039 412.514 155.216C409.228 151.394 407.805 146.369 410.981 142.001C412.554 139.897 414.89 138.491 417.489 138.083C420.089 137.675 422.745 138.297 424.89 139.816C429.6 142.984 436.062 150.411 438.581 153.36Z" fill="url(#paint1_linear_20424_129433)"/>
<path d="M354.796 200.218C346.91 207.536 320.077 227.633 316.025 230.473C311.972 233.312 308.139 235.169 305.182 231.128L303.539 228.834L301.458 226.104L300.363 227.633L298.829 229.927C296.355 233.442 293.489 236.666 290.287 239.538C290.287 239.538 287.549 289.778 281.963 304.96C280.734 308.26 278.523 311.106 275.625 313.117C272.728 315.128 269.283 316.207 265.753 316.21H147.139C141.444 316.21 134.872 308.127 136.953 299.28C157.215 214.415 176.382 130.426 176.382 130.426C176.382 130.426 200.149 133.484 213.51 135.668L304.853 145.608C325.663 149.758 331.687 156.202 355.672 193.119C356.768 194.866 357.753 197.488 354.796 200.218Z" fill="#FFDAA2"/>
<path d="M299.158 229.38C299.496 228.757 299.899 228.171 300.362 227.633L298.829 229.926C298.82 229.813 298.846 229.699 298.905 229.601C298.964 229.503 299.052 229.426 299.158 229.38Z" fill="#FFC619"/>
<path d="M319.091 201.309C316.134 209.391 310.658 219.112 303.539 228.833L301.458 226.102C308.139 216.928 313.287 207.753 316.025 200.108C316.211 199.735 316.517 199.435 316.894 199.257C317.272 199.079 317.698 199.032 318.106 199.125C318.518 199.295 318.85 199.616 319.033 200.022C319.216 200.428 319.237 200.888 319.091 201.309Z" fill="#FFC619"/>
<path d="M304.414 183.507C304.451 184.93 304.378 186.354 304.195 187.766C302.553 202.62 289.191 214.744 272.872 216.492C265.753 217.256 255.457 215.836 248.557 212.232C230.486 202.511 217.891 186.346 210.772 177.281C203.653 168.216 199.71 161.007 199.053 154.891C197.738 142.112 208.253 131.736 221.067 130.534C252.938 127.585 290.943 133.702 300.8 137.743C310.657 141.784 315.914 148.01 317.448 157.075C318.981 166.141 311.424 178.701 304.414 183.507Z" fill="#FF78B9"/>
<path d="M304.414 183.508C304.45 184.931 304.377 186.355 304.195 187.767C294.453 194.751 282.787 198.565 270.79 198.69C270.355 198.69 269.937 198.517 269.629 198.21C269.321 197.903 269.147 197.486 269.147 197.051C269.147 196.617 269.321 196.2 269.629 195.893C269.937 195.586 270.355 195.413 270.79 195.413C283.009 195.258 294.833 191.071 304.414 183.508Z" fill="#FF2EA2"/>
<path d="M187.551 205.569C192.712 206.707 197.249 209.75 200.251 214.088C203.254 218.425 204.498 223.735 203.735 228.95C202.972 234.166 200.258 238.9 196.138 242.201C192.019 245.502 186.799 247.126 181.527 246.746C181.527 246.746 106.613 259.962 87.5559 256.357C68.4988 252.753 72.4417 234.513 79.8893 214.635C87.3369 194.756 91.7178 193.883 105.846 195.084L187.551 205.569Z" fill="#4C7DFF"/>
<path d="M258.194 222.499L253.923 223.373H253.594C254.595 224.17 255.353 225.228 255.784 226.431C256.337 228.158 256.559 229.973 256.442 231.783C256.375 233.408 255.959 235 255.222 236.45C254.485 237.901 253.444 239.178 252.17 240.193C251.566 240.725 251.146 241.434 250.969 242.218C250.792 243.002 250.867 243.822 251.184 244.562C252.499 247.62 252.389 253.081 249.542 256.03C246.694 258.979 241.984 260.071 235.851 260.071C229.718 260.071 220.08 256.576 211.975 254.501C203.87 252.426 203.323 252.426 199.27 252.426L170.685 251.77L184.485 203.167L204.308 203.494C204.308 203.494 225.337 193.446 233.88 192.681C242.423 191.917 243.299 194.429 244.284 199.781C244.5 200.789 244.646 201.811 244.723 202.839H255.784C261.699 203.057 265.204 206.443 265.861 211.249C266.518 216.055 262.575 221.516 258.194 222.499Z" fill="#8F473B"/>
<path d="M249.761 202.949H249.213C249.213 202.949 244.066 203.058 239.356 203.495H239.137C238.921 203.502 238.706 203.467 238.504 203.391C238.302 203.315 238.117 203.201 237.959 203.054C237.802 202.907 237.675 202.73 237.585 202.534C237.496 202.338 237.447 202.126 237.439 201.911C237.432 201.696 237.468 201.482 237.543 201.28C237.619 201.079 237.734 200.894 237.882 200.737C238.029 200.58 238.206 200.453 238.403 200.364C238.6 200.275 238.812 200.225 239.027 200.218L244.285 199.891C244.5 200.899 244.646 201.921 244.723 202.949H249.761Z" fill="#6B2F34"/>
<path d="M255.785 226.542L248.447 226.979H248.338C248.136 226.994 247.934 226.969 247.742 226.906C247.55 226.842 247.373 226.742 247.22 226.61C247.068 226.478 246.943 226.317 246.852 226.137C246.762 225.957 246.709 225.76 246.695 225.559C246.664 225.35 246.677 225.136 246.734 224.932C246.79 224.728 246.888 224.538 247.022 224.374C247.156 224.21 247.322 224.075 247.511 223.978C247.7 223.881 247.907 223.825 248.119 223.812L253.923 223.375H253.595C254.612 224.202 255.372 225.3 255.785 226.542Z" fill="#6B2F34"/>
<path d="M225.229 249.917C224.835 249.899 224.458 249.749 224.16 249.492C223.862 249.234 223.66 248.883 223.586 248.497C223.556 248.273 223.572 248.045 223.634 247.828C223.696 247.611 223.802 247.409 223.946 247.234C224.09 247.06 224.269 246.917 224.471 246.815C224.673 246.713 224.894 246.653 225.12 246.64C226.261 246.523 227.367 246.171 228.366 245.607C229.364 245.043 230.236 244.279 230.924 243.363C231.685 242.489 232.246 241.459 232.568 240.346C232.889 239.233 232.964 238.064 232.786 236.919C232.67 236.058 232.45 235.215 232.129 234.407C231.662 233.212 231.591 231.9 231.926 230.662C232.261 229.424 232.985 228.325 233.991 227.526C235.157 226.621 236.071 225.433 236.647 224.076C237.222 222.718 237.439 221.236 237.277 219.772C237.174 218.614 236.828 217.491 236.262 216.475C235.696 215.459 234.922 214.573 233.991 213.874C233.114 213.115 232.081 212.555 230.965 212.235C229.849 211.914 228.677 211.84 227.529 212.017C227.11 212.048 226.696 211.919 226.37 211.655C226.044 211.391 225.832 211.012 225.777 210.597C225.746 210.382 225.759 210.162 225.814 209.952C225.869 209.741 225.966 209.544 226.098 209.371C226.231 209.198 226.397 209.053 226.586 208.945C226.775 208.837 226.984 208.767 227.201 208.74C230.373 208.395 233.555 209.296 236.072 211.252C238.544 213.28 240.15 216.169 240.563 219.335C240.802 221.353 240.515 223.4 239.728 225.275C238.941 227.151 237.682 228.791 236.072 230.038C235.61 230.382 235.274 230.867 235.116 231.42C234.957 231.972 234.986 232.562 235.196 233.097C235.653 234.214 235.948 235.391 236.072 236.592C236.418 239.755 235.515 242.929 233.553 245.439C231.55 247.94 228.637 249.549 225.448 249.917H225.229Z" fill="#6B2F34"/>
<path d="M266.19 79.0933C238.371 98.2071 215.919 113.389 187.333 131.629C171.124 141.459 156.338 116.556 172.876 107.054C202.229 90.0155 227.09 74.7245 257.648 61.0718C263.452 58.4505 268.819 60.198 270.243 64.6761C271.667 69.1542 268.71 71.9939 268.71 71.9939C268.71 71.9939 270.352 75.9259 266.19 79.0933Z" fill="url(#paint2_linear_20424_129433)"/>
<path d="M173.644 104.323L174.739 148.339L203.872 130.863C205.148 130.109 206.107 128.918 206.57 127.512C207.033 126.106 206.97 124.581 206.391 123.218L193.029 92.0898L173.644 104.323Z" fill="#FFC619"/>
<path d="M124.248 121.906L177.586 123.763C179.229 147.027 175.834 173.677 175.834 173.677L108.477 171.93C109.243 162.974 118.224 128.678 124.248 121.906Z" fill="#464B90"/>
<path d="M129.176 170.947V198.034C129.175 198.566 129.379 199.077 129.746 199.464C130.113 199.85 130.615 200.081 131.147 200.109L165.1 202.512C165.42 202.529 165.731 202.619 166.011 202.776C166.29 202.933 166.529 203.153 166.709 203.417C166.889 203.681 167.006 203.983 167.05 204.3C167.093 204.617 167.063 204.939 166.962 205.242L158.2 230.909L182.404 238.118L199.819 198.689C205.076 186.456 198.395 173.24 183.281 172.694L131.476 168.981C131.191 168.933 130.899 168.948 130.62 169.025C130.342 169.102 130.084 169.239 129.864 169.426C129.645 169.614 129.469 169.847 129.35 170.11C129.231 170.373 129.172 170.658 129.176 170.947Z" fill="black"/>
<path d="M170.028 124.312C168.772 127.131 167.152 129.775 165.209 132.176C162.058 136.207 158.656 140.038 155.023 143.644C155.023 143.644 151.08 138.074 146.042 131.739C143.961 129.117 141.661 126.278 139.471 123.766L170.028 124.312Z" fill="#FFC619"/>
<path d="M170.028 124.312C168.772 127.131 167.152 129.775 165.209 132.176C162.784 132.876 160.283 133.279 157.761 133.377C153.789 133.524 149.821 132.969 146.042 131.739C143.961 129.117 141.661 126.278 139.471 123.766L170.028 124.312Z" fill="#FF2EA2"/>
<path d="M192.152 238.007C188.538 235.932 180.981 233.857 180.981 233.857L152.176 226.43L147.686 241.284C145.824 247.4 149.548 253.844 156.009 255.81L184.486 263.783C192.481 266.186 197.847 260.507 199.6 254.827C201.352 249.148 198.176 241.393 192.152 238.007Z" fill="#AA5F44"/>
<path d="M59.1906 67.4055C69.9239 56.9203 108.476 51.0223 126.548 61.5076L116.471 76.2525C100.591 76.2525 74.7429 80.6213 65.762 81.2767C56.781 81.932 50.9763 75.3787 59.1906 67.4055Z" fill="#FF78B9"/>
<path d="M72.4421 67.5132C79.2326 64.6734 98.2897 59.54 117.675 63.2536L111.433 71.4452C100.152 71.336 77.6992 74.2849 72.3326 74.6126C66.9659 74.9403 65.9802 70.353 72.4421 67.5132Z" fill="#FFAED7"/>
<path d="M75.1814 34.7487C89.0909 28.9599 127.096 37.9161 139.91 54.2993L125.015 64.2385C110.338 58.3405 84.7099 52.7702 76.1671 50.0397C67.6242 47.3091 64.6671 39.1175 75.1814 34.7487Z" fill="#FF78B9"/>
<path d="M87.447 39.7732C94.7851 39.664 114.39 41.9576 131.037 52.6613L122.166 57.9039C111.761 53.6443 89.8565 48.074 84.7089 46.4357C79.5613 44.7974 80.4374 39.9916 87.447 39.7732Z" fill="#FFAED7"/>
<path d="M185.034 51.6762L130.491 49.2733C119.868 48.8364 110.887 57.6834 110.449 68.9332C110.011 80.183 118.225 89.7945 128.849 90.0129L183.61 91.3236C193.577 91.542 201.901 82.9135 202.229 72.1006C202.558 61.2877 194.891 52.1131 185.034 51.6762Z" fill="#FF78B9"/>
<path d="M185.91 84.2239L123.482 82.4764C112.31 82.2579 102.672 91.651 102.234 103.775C101.796 115.898 110.448 125.619 121.729 125.728L184.486 126.274C195.001 126.383 203.762 117.1 204.091 105.522C204.42 93.9446 196.424 84.5516 185.91 84.2239Z" fill="#FF78B9"/>
<path d="M158.825 86.6517C159.82 85.6828 159.121 83.3574 157.262 81.4578C155.403 79.5583 153.089 78.8039 152.093 79.7729C151.097 80.7418 151.797 83.0672 153.656 84.9668C155.515 86.8663 157.829 87.6207 158.825 86.6517Z" fill="black"/>
<path d="M180.517 86.0675C182.422 84.2138 183.178 81.9061 182.206 80.9132C181.235 79.9203 178.903 80.618 176.998 82.4717C175.093 84.3254 174.337 86.6331 175.308 87.626C176.28 88.619 178.612 87.9212 180.517 86.0675Z" fill="black"/>
<path d="M169.7 95.6951C169.433 97.9213 168.645 100.054 167.4 101.921C165.757 104.433 163.567 106.18 161.595 105.743C159.624 105.307 156.995 101.047 156.886 97.115C156.784 95.6371 156.97 94.1534 157.433 92.7461L169.7 95.6951Z" fill="black"/>
<path d="M167.4 101.919C165.757 104.431 163.567 106.179 161.596 105.742C159.624 105.305 156.996 101.045 156.886 97.1133C161.705 97.3317 165.757 99.1885 167.4 101.919Z" fill="#FF2EA2"/>
<path d="M174.299 192.683C173.533 194.867 156.556 239.757 156.556 239.757L126.766 236.48L136.404 204.26H136.295L132.899 204.042L119.537 203.386C117.114 203.245 114.75 202.588 112.603 201.459C110.457 200.329 108.578 198.754 107.094 196.839C105.609 194.924 104.554 192.714 103.999 190.358C103.444 188.002 103.402 185.554 103.876 183.18L107.271 166.906L162.69 171.275C171.342 172.804 178.023 181.76 174.299 192.683Z" fill="#242145"/>
<path d="M139.472 195.087L136.296 204.262L132.9 204.043L136.296 194.104C136.426 193.684 136.719 193.333 137.109 193.128C137.5 192.923 137.955 192.882 138.377 193.012C138.798 193.142 139.15 193.434 139.355 193.823C139.561 194.213 139.603 194.667 139.472 195.087Z" fill="black"/>
<path d="M132.133 136.653C129.285 135.451 123.809 135.779 123.809 135.779L123.48 142.005C126.328 141.786 134.98 141.786 134.98 141.786C134.98 141.786 135.419 138.073 132.133 136.653Z" fill="#FF78B9"/>
<path d="M135.31 141.24C127.643 141.022 119.867 140.366 111.981 140.803L109.243 167.453C117.457 165.487 125.562 163.74 133.557 161.665C136.843 160.9 139.362 156.094 140.676 151.835C141.991 147.575 141.553 141.459 135.31 141.24Z" fill="#FF78B9"/>
<path d="M112.2 105.199C107.586 106.015 102.834 105.076 98.8801 102.569C94.9264 100.062 92.0586 96.1679 90.8428 91.6555L89.0904 85.5391L29.7286 98.6456L30.7143 104.98C31.5324 109.581 30.5915 114.321 28.0773 118.263C25.5631 122.206 21.6583 125.066 17.1333 126.279L11 128.026L17.9 159.045C27.7571 203.171 82.0809 217.588 84.3809 218.243L87.6666 219.008L90.4047 216.823C98.4111 209.862 105.479 201.895 111.433 193.122C124.686 173.681 129.505 153.584 125.452 135.235L118.552 104.216L112.2 105.199Z" fill="#66BCFF"/>
<path d="M125.452 135.235L118.552 104.216L112.2 105.199C107.586 106.015 102.834 105.076 98.8801 102.569C94.9264 100.062 92.0586 96.1679 90.8428 91.6555L89.0904 85.5391L29.7286 98.6456L30.7143 104.98C31.5324 109.581 30.5915 114.321 28.0773 118.263C25.5631 122.206 21.6583 125.066 17.1333 126.279L11 128.026L17.9 159.045C27.7571 203.171 82.0809 217.588 84.3809 218.243L87.6666 219.008L90.4047 216.823C98.4111 209.862 105.479 201.895 111.433 193.122C124.686 173.681 129.505 153.584 125.452 135.235ZM87.119 213.001L86.4618 213.437L85.6952 213.219C85.1476 213.001 32.0286 198.911 22.9381 157.844L17.0238 131.631L18.5571 131.194C24.2686 129.625 29.1915 125.996 32.3693 121.01C35.5472 116.024 36.7529 110.039 35.7524 104.216L35.5333 102.578L85.4761 91.5462L85.9142 93.0753C87.5098 98.7797 91.1706 103.691 96.1882 106.859C101.206 110.026 107.223 111.225 113.076 110.223L114.609 110.005L120.414 136.327C129.614 177.394 87.5571 212.564 87.119 213.001Z" fill="#8CD9FF"/>
<path d="M82.5193 138.184C79.9658 137.636 77.3526 137.416 74.7431 137.529C74.5241 138.184 74.4146 138.949 74.1955 139.604L70.3622 140.15C68.9408 140.471 67.5487 140.909 66.2003 141.461C65.7867 140.831 65.3096 140.246 64.7765 139.713C62.3646 140.705 60.0841 141.989 57.986 143.536C55.1856 150.277 54.9134 157.799 57.2193 164.725C60.3885 166.061 63.7549 166.872 67.186 167.128C67.653 165.986 68.0552 164.819 68.3908 163.633C67.2647 163.534 66.1585 163.277 65.105 162.868L65.6527 162.213C68.7385 162.843 71.9227 162.818 74.9983 162.141C78.074 161.463 80.9724 160.148 83.505 158.281L84.3812 158.608C83.5438 159.394 82.6261 160.089 81.6431 160.684C82.4626 161.646 83.3404 162.558 84.2717 163.414C87.2257 161.696 89.8874 159.521 92.1574 156.97C91.3682 149.74 87.9373 143.052 82.5193 138.184ZM67.9527 158.062C67.0667 158.221 66.1537 158.023 65.4144 157.511C64.675 156.999 64.1698 156.215 64.0098 155.332C63.773 154.449 63.8926 153.508 64.343 152.712C64.7935 151.915 65.5388 151.327 66.4193 151.072C67.2981 150.99 68.1768 151.231 68.8897 151.75C69.6025 152.269 70.1002 153.03 70.2888 153.89C70.4774 154.75 70.344 155.649 69.9136 156.418C69.4833 157.186 68.7857 157.771 67.9527 158.062ZM79.6717 155.441C79.2317 155.535 78.7769 155.539 78.3356 155.451C77.8942 155.363 77.4757 155.185 77.106 154.929C76.7363 154.673 76.4233 154.344 76.1864 153.962C75.9495 153.581 75.7938 153.155 75.7288 152.71C75.492 151.827 75.6116 150.887 76.0621 150.09C76.5125 149.294 77.2579 148.705 78.1384 148.451C78.5849 148.373 79.0425 148.385 79.4843 148.487C79.926 148.588 80.3429 148.777 80.7104 149.041C81.0779 149.306 81.3885 149.641 81.624 150.028C81.8594 150.414 82.0149 150.843 82.0812 151.291C82.2129 151.721 82.2543 152.174 82.2028 152.621C82.1514 153.068 82.0082 153.499 81.7821 153.889C81.5561 154.278 81.252 154.617 80.8889 154.884C80.5258 155.151 80.1115 155.341 79.6717 155.441Z" fill="white"/>
<path d="M168.714 241.617C165.1 239.541 157.433 237.357 157.433 237.357L128.629 230.039L124.138 244.893C123.742 246.392 123.645 247.954 123.855 249.49C124.064 251.026 124.575 252.506 125.358 253.845C126.142 255.184 127.182 256.356 128.419 257.294C129.657 258.231 131.068 258.917 132.571 259.31L161.048 267.393C169.043 269.796 174.41 264.116 176.162 258.437C177.914 252.757 174.738 245.002 168.714 241.617Z" fill="#D18D5E"/>
<path d="M254.471 97.7673C250.09 101.262 240.561 97.1119 233.552 92.197C230.961 90.4249 228.606 88.3331 226.542 85.9713C221.614 79.6365 225.009 73.5201 231.252 68.4959C237.495 63.4717 244.395 61.7242 249.323 67.9498C251.142 70.3563 252.616 73.0028 253.704 75.8137C256.99 83.7869 258.961 94.2722 254.471 97.7673Z" fill="#242145"/>
<path d="M254.472 97.766C250.091 101.261 240.562 97.1107 233.553 92.1957C238.153 84.1133 244.724 77.6693 253.705 75.8125C256.991 83.7857 258.962 94.2709 254.472 97.766Z" fill="black"/>
<path d="M286.451 117.756C292.037 106.288 309.013 89.031 309.561 94.8198C310.546 104.868 306.604 123.436 293.351 134.576L286.451 117.756Z" fill="#2859D1"/>
<path d="M235.743 114.479C229.938 103.011 212.743 85.972 212.305 91.7608C211.429 101.918 215.7 120.377 229.062 131.408L235.743 114.479Z" fill="#4C7DFF"/>
<path d="M223.586 121.141C222.735 122.352 221.821 123.519 220.848 124.636L219.424 126.274C218.877 126.82 218.548 127.476 217.453 127.476C216.789 127.429 216.163 127.152 215.683 126.693C215.203 126.234 214.899 125.622 214.824 124.964C214.824 123.871 215.481 123.544 215.919 122.998L217.562 121.468C218.644 120.464 219.777 119.516 220.958 118.629C221.354 118.367 221.836 118.267 222.304 118.348C222.773 118.429 223.192 118.686 223.477 119.066C223.676 119.371 223.791 119.724 223.811 120.089C223.83 120.453 223.752 120.816 223.586 121.141Z" fill="#FFE75C"/>
<path d="M303.866 153.145C303.099 165.924 288.313 180.996 265.533 180.996C245.161 180.996 220.19 170.62 220.737 144.298C220.956 135.233 227.09 119.505 230.375 110.439C230.96 108.91 231.398 107.599 231.69 106.507C234.537 97.3327 239.466 88.595 246.585 83.3523L247.571 82.8062C252.775 79.3016 259.089 77.8247 265.314 78.6558C276.485 80.0757 282.837 84.8814 286.561 90.7794C290.285 96.6773 291.709 106.18 292.147 112.078C292.585 117.976 293.68 123.218 296.747 128.57C299.813 133.922 304.523 143.096 303.866 153.145Z" fill="#4C7DFF"/>
<path d="M286.562 90.7794C282.838 84.8814 276.485 80.0757 265.314 78.6558C259.09 77.8247 252.776 79.3016 247.571 82.8062L246.585 83.3523C239.466 88.595 234.538 97.3327 231.69 106.507C231.325 107.599 230.887 108.91 230.376 110.439C238.152 112.733 246.914 108.473 250.2 100.282C251.097 98.1745 251.56 95.9086 251.56 93.6191C251.56 91.3297 251.097 89.0638 250.2 86.9566C255.785 91.3255 264.985 94.1653 273.419 94.1653C279.005 94.1653 283.385 92.8546 286.562 90.7794Z" fill="#242145"/>
<path d="M298.829 123.652C299.645 124.889 300.561 126.058 301.567 127.147L302.991 128.785C303.538 129.331 303.867 129.987 304.962 129.987C305.626 129.94 306.252 129.663 306.732 129.204C307.212 128.746 307.516 128.134 307.591 127.475C307.591 126.383 306.934 125.946 306.496 125.4L304.853 123.87L301.457 121.14C301.037 120.895 300.544 120.804 300.064 120.884C299.584 120.964 299.147 121.209 298.829 121.577C298.665 121.898 298.58 122.254 298.58 122.614C298.58 122.975 298.665 123.33 298.829 123.652Z" fill="#FFE75C"/>
<path d="M221.286 51.0234C220.205 50.3074 219.286 49.374 218.588 48.2831C217.89 47.1922 217.429 45.9678 217.233 44.6886L216.576 40.3197C216.576 40.2038 216.53 40.0927 216.448 40.0108C216.366 39.9288 216.254 39.8828 216.138 39.8828C216.022 39.8828 215.91 39.9288 215.828 40.0108C215.746 40.0927 215.7 40.2038 215.7 40.3197L215.043 44.6886C214.847 45.9678 214.386 47.1922 213.688 48.2831C212.99 49.374 212.071 50.3074 210.99 51.0234L210.333 51.3511C210.265 51.4019 210.21 51.4679 210.172 51.5437C210.134 51.6196 210.114 51.7032 210.114 51.788C210.114 51.8972 210.224 52.1156 210.333 52.1156L210.99 52.5525C212.071 53.2685 212.99 54.2019 213.688 55.2928C214.386 56.3837 214.847 57.6081 215.043 58.8874L215.7 63.2562C215.7 63.3721 215.746 63.4832 215.828 63.5651C215.91 63.6471 216.022 63.6931 216.138 63.6931C216.254 63.6931 216.366 63.6471 216.448 63.5651C216.53 63.4832 216.576 63.3721 216.576 63.2562L217.233 58.8874C217.429 57.6081 217.89 56.3837 218.588 55.2928C219.286 54.2019 220.205 53.2685 221.286 52.5525L221.943 52.1156C222.052 52.1156 222.162 51.8972 222.162 51.788C222.162 51.7032 222.142 51.6196 222.104 51.5437C222.066 51.4679 222.011 51.4019 221.943 51.3511L221.286 51.0234Z" fill="#8CD9FF"/>
<path d="M37.2857 58.8867C36.2048 58.1707 35.286 57.2373 34.5881 56.1464C33.8902 55.0555 33.4288 53.8311 33.2333 52.5518L32.5762 48.183C32.5762 48.0671 32.53 47.956 32.4478 47.8741C32.3657 47.7921 32.2543 47.7461 32.1381 47.7461C32.0219 47.7461 31.9104 47.7921 31.8283 47.8741C31.7461 47.956 31.7 48.0671 31.7 48.183L31.0428 52.5518C30.8474 53.8311 30.3859 55.0555 29.688 56.1464C28.9902 57.2373 28.0713 58.1707 26.9904 58.8867L26.3333 59.2143C26.2653 59.2652 26.2101 59.3312 26.1721 59.407C26.1341 59.4828 26.1143 59.5665 26.1143 59.6512C26.1143 59.7605 26.2238 59.9789 26.3333 59.9789L26.9904 60.4158C28.0713 61.1318 28.9902 62.0652 29.688 63.1561C30.3859 64.247 30.8474 65.4714 31.0428 66.7506L31.7 71.1195C31.7 71.3379 31.919 71.4472 32.1381 71.4472C32.3571 71.4472 32.5762 71.3379 32.5762 71.1195L33.2333 66.7506C33.4288 65.4714 33.8902 64.247 34.5881 63.1561C35.286 62.0652 36.2048 61.1318 37.2857 60.4158L37.9428 59.9789C38.0523 59.9789 38.1619 59.7605 38.1619 59.6512C38.1619 59.5665 38.1421 59.4828 38.1041 59.407C38.066 59.3312 38.0108 59.2652 37.9428 59.2143L37.2857 58.8867Z" fill="#808AFF"/>
<path d="M317.995 49.3833C316.378 48.3615 315.002 47.0025 313.962 45.3999C312.923 43.7972 312.243 41.9889 311.971 40.0995L310.985 33.5462C310.959 33.3919 310.879 33.2521 310.758 33.1519C310.638 33.0517 310.485 32.9979 310.328 33.0001C310.171 32.9979 310.019 33.0517 309.898 33.1519C309.778 33.2521 309.697 33.3919 309.671 33.5462L308.685 40.0995C308.413 41.9889 307.734 43.7972 306.694 45.3999C305.654 47.0025 304.278 48.3615 302.662 49.3833L301.895 49.9294C301.79 49.9747 301.701 50.0518 301.643 50.1497C301.584 50.2477 301.557 50.3616 301.566 50.4755C301.557 50.5894 301.584 50.7033 301.643 50.8013C301.701 50.8992 301.79 50.9763 301.895 51.0216L302.662 51.5677C304.272 52.6225 305.641 54.0044 306.679 55.6231C307.717 57.2417 308.401 59.0605 308.685 60.9608L309.671 67.4048C309.697 67.5591 309.778 67.6989 309.898 67.7991C310.019 67.8993 310.171 67.9531 310.328 67.9509C310.485 67.9531 310.638 67.8993 310.758 67.7991C310.879 67.6989 310.959 67.5591 310.985 67.4048L311.971 60.9608C312.256 59.0605 312.94 57.2417 313.978 55.6231C315.016 54.0044 316.385 52.6225 317.995 51.5677L318.871 51.0216C318.976 50.9763 319.065 50.8992 319.123 50.8013C319.182 50.7033 319.209 50.5894 319.2 50.4755C319.209 50.3616 319.182 50.2477 319.123 50.1497C319.065 50.0518 318.976 49.9747 318.871 49.9294L317.995 49.3833Z" fill="#FFE75C"/>
<path d="M41.7761 249.368C40.1873 248.315 38.8327 246.947 37.7964 245.35C36.7601 243.753 36.0644 241.961 35.7523 240.084L34.7666 233.531C34.7405 233.376 34.6598 233.236 34.5393 233.136C34.4188 233.036 34.2663 232.982 34.1094 232.984C33.9526 232.982 33.8001 233.036 33.6796 233.136C33.5591 233.236 33.4784 233.376 33.4523 233.531L32.5761 240.084C32.264 241.974 31.5566 243.777 30.5 245.377C29.4433 246.976 28.0609 248.336 26.4428 249.368L25.6761 249.914C25.571 249.959 25.4827 250.036 25.4237 250.134C25.3648 250.232 25.3382 250.346 25.3475 250.46C25.3382 250.574 25.3648 250.688 25.4237 250.786C25.4827 250.884 25.571 250.961 25.6761 251.006L26.4428 251.552C28.0552 252.616 29.4314 253.999 30.4864 255.614C31.5414 257.23 32.2526 259.044 32.5761 260.945L33.4523 267.389C33.4784 267.543 33.5591 267.683 33.6796 267.783C33.8001 267.884 33.9526 267.937 34.1094 267.935C34.2663 267.937 34.4188 267.884 34.5393 267.783C34.6598 267.683 34.7405 267.543 34.7666 267.389L35.7523 260.945C36.0808 259.059 36.7826 257.257 37.8168 255.644C38.8511 254.032 40.197 252.641 41.7761 251.552L42.6523 251.006C42.7575 250.961 42.8457 250.884 42.9047 250.786C42.9636 250.688 42.9903 250.574 42.9809 250.46C42.9903 250.346 42.9636 250.232 42.9047 250.134C42.8457 250.036 42.7575 249.959 42.6523 249.914L41.7761 249.368Z" fill="#34F4CF"/>
<path d="M269.804 131.188C274.098 131.188 277.58 126.347 277.58 120.375C277.58 114.404 274.098 109.562 269.804 109.562C265.509 109.562 262.027 114.404 262.027 120.375C262.027 126.347 265.509 131.188 269.804 131.188Z" fill="white"/>
<path d="M272.103 125.074C274.281 125.074 276.046 122.629 276.046 119.613C276.046 116.597 274.281 114.152 272.103 114.152C269.925 114.152 268.16 116.597 268.16 119.613C268.16 122.629 269.925 125.074 272.103 125.074Z" fill="black"/>
<path d="M287.546 152.379C286.503 154.566 285.096 156.56 283.384 158.277C281.496 160.177 279.314 161.763 276.922 162.974L274.951 163.848C272.255 164.848 269.393 165.329 266.518 165.268C263.664 165.081 260.856 164.454 258.194 163.411C255.558 162.365 253.115 160.889 250.965 159.042C248.269 156.775 246.164 153.889 244.832 150.632C244.338 149.248 243.972 147.822 243.737 146.372C243.08 142.659 244.065 138.836 247.132 137.198C250.199 135.559 251.075 135.996 253.922 136.761C259.618 138.399 264.437 142.549 270.132 142.549C274.075 142.549 276.922 140.256 281.303 140.365L284.37 140.693C287.765 141.567 290.722 145.826 287.546 152.379Z" fill="black"/>
<path d="M283.384 158.277C281.496 160.178 279.314 161.763 276.922 162.974L274.951 163.848C274.935 163.694 274.973 163.539 275.06 163.411L275.718 161.445L278.018 155.328C278.894 152.38 280.756 151.615 282.18 154.892C282.695 155.977 283.098 157.111 283.384 158.277Z" fill="white"/>
<path d="M276.922 162.976L274.951 163.85C272.255 164.85 269.394 165.332 266.518 165.27C263.664 165.083 260.856 164.457 258.194 163.413C255.558 162.368 253.115 160.891 250.965 159.044C248.269 156.777 246.164 153.891 244.832 150.634C246.603 150.322 248.4 150.176 250.199 150.197C260.384 150.197 270.351 154.785 275.718 161.447C276.178 161.908 276.582 162.421 276.922 162.976Z" fill="#FF2EA2"/>
<path d="M258.193 163.411C255.557 162.365 253.114 160.889 250.965 159.042L252.279 155.328C253.155 152.38 255.127 151.615 256.551 154.892C257.735 157.572 258.296 160.484 258.193 163.411Z" fill="white"/>
<path d="M281.303 140.365C279.66 146.372 273.308 147.573 265.751 147.137C258.194 146.7 249.103 143.532 247.132 137.197C248.775 136.214 251.075 135.996 253.922 136.761C259.618 138.399 264.437 142.549 270.132 142.549C274.075 142.549 276.922 140.256 281.303 140.365Z" fill="white"/>
<path d="M280.427 103.885C280.427 107.598 275.608 111.312 269.804 111.312C263.999 111.312 259.07 107.38 259.07 103.666C259.07 99.9527 263.889 101.154 269.804 101.154C275.718 101.154 280.427 100.171 280.427 103.885Z" fill="#242145"/>
</g>
<path d="M344.171 311.141C343.091 310.425 342.172 309.491 341.474 308.4C340.776 307.309 340.314 306.085 340.119 304.806L339.462 300.437C339.462 300.321 339.416 300.21 339.334 300.128C339.251 300.046 339.14 300 339.024 300C338.908 300 338.796 300.046 338.714 300.128C338.632 300.21 338.586 300.321 338.586 300.437L337.929 304.806C337.734 306.098 337.261 307.334 336.543 308.427C335.824 309.521 334.877 310.446 333.767 311.141L333.219 311.468C333.151 311.519 333.096 311.585 333.058 311.661C333.02 311.737 333 311.82 333 311.905C333 312.014 333.11 312.233 333.219 312.233L333.767 312.67C334.877 313.364 335.824 314.289 336.543 315.383C337.261 316.476 337.734 317.712 337.929 319.005L338.586 323.373C338.586 323.592 338.805 323.701 339.024 323.701C339.243 323.701 339.462 323.592 339.462 323.373L340.119 319.005C340.314 317.725 340.776 316.501 341.474 315.41C342.172 314.319 343.091 313.386 344.171 312.67L344.829 312.233C344.938 312.233 344.938 312.014 344.938 311.905C344.938 311.687 344.938 311.577 344.829 311.468L344.171 311.141Z" fill="#FFAED7"/>
<defs>
<linearGradient id="paint0_linear_20424_129433" x1="485.413" y1="47.5155" x2="351.276" y2="112.027" gradientUnits="userSpaceOnUse">
<stop stop-color="#8CD9FF"/>
<stop offset="0.32" stop-color="#79CBFF"/>
<stop offset="0.69" stop-color="#6BC0FF"/>
<stop offset="1" stop-color="#66BCFF"/>
</linearGradient>
<linearGradient id="paint1_linear_20424_129433" x1="453.038" y1="166.27" x2="385.332" y2="131.374" gradientUnits="userSpaceOnUse">
<stop offset="0.06" stop-color="#AA5F44"/>
<stop offset="0.29" stop-color="#A15741"/>
<stop offset="0.59" stop-color="#8F473B"/>
</linearGradient>
<linearGradient id="paint2_linear_20424_129433" x1="179.498" y1="119.409" x2="270.803" y2="68.5707" gradientUnits="userSpaceOnUse">
<stop stop-color="#FF2EA2"/>
<stop offset="0.36" stop-color="#FF4EAC"/>
<stop offset="0.77" stop-color="#FF78B9"/>
</linearGradient>
<clipPath id="clip0_20424_129433">
<rect width="460" height="257" fill="white" transform="translate(11 33)"/>
</clipPath>
</defs>
</svg>
